<?xml version="1.0" encoding="UTF-8" standalone="no"?>
<!-- Created with Inkscape (http://www.inkscape.org/) -->

<svg
   width="48"
   height="48"
   viewBox="0 0 48 48"
   version="1.1"
   id="svg1"
   inkscape:version="1.3.2 (091e20e, 2023-11-25)"
   sodipodi:docname="location-pointer.svg"
   xmlns:inkscape="http://www.inkscape.org/namespaces/inkscape"
   xmlns:sodipodi="http://sodipodi.sourceforge.net/DTD/sodipodi-0.dtd"
   xmlns="http://www.w3.org/2000/svg"
   xmlns:svg="http://www.w3.org/2000/svg">
  <sodipodi:namedview
     id="namedview1"
     pagecolor="#ffffff"
     bordercolor="#000000"
     borderopacity="0.25"
     inkscape:showpageshadow="2"
     inkscape:pageopacity="0.0"
     inkscape:pagecheckerboard="0"
     inkscape:deskcolor="#d1d1d1"
     inkscape:document-units="px"
     inkscape:zoom="16.75"
     inkscape:cx="24.059701"
     inkscape:cy="24.059701"
     inkscape:window-width="1920"
     inkscape:window-height="1008"
     inkscape:window-x="0"
     inkscape:window-y="0"
     inkscape:window-maximized="1"
     inkscape:current-layer="layer1"
     showgrid="false" />
  <defs
     id="defs1">
    <inkscape:path-effect
       effect="fillet_chamfer"
       id="path-effect5"
       is_visible="true"
       lpeversion="1"
       nodesatellites_param="F,0,0,1,0,1.2165657,0,1 @ F,0,0,1,0,0,0,1 @ F,0,0,1,0,0,0,1 @ F,0,0,1,0,0,0,1 @ F,0,0,1,0,0,0,1 @ F,0,0,1,0,0,0,1"
       radius="0"
       unit="px"
       method="auto"
       mode="F"
       chamfer_steps="1"
       flexible="false"
       use_knot_distance="true"
       apply_no_radius="true"
       apply_with_radius="true"
       only_selected="false"
       hide_knots="false" />
    <inkscape:path-effect
       effect="transform_2pts"
       start="-1.3322521,24.896184"
       end="18.526281,24.896184"
       id="path-effect4"
       is_visible="true"
       lpeversion="1"
       first_knot="1"
       last_knot="2"
       helper_size="3"
       stretch="1"
       offset="0"
       elastic="true"
       from_original_width="false"
       flip_vertical="false"
       flip_horizontal="false"
       lock_length="false"
       lock_angle="false" />
    <inkscape:path-effect
       effect="bend_path"
       id="path-effect3"
       is_visible="true"
       lpeversion="1"
       bendpath="M -1.3322521,24.896184 H 18.526281"
       prop_scale="1"
       scale_y_rel="false"
       vertical="false"
       hide_knot="false" />
    <rect
       x="5.5522388"
       y="2.4477612"
       width="22.507463"
       height="25.61194"
       id="rect2" />
  </defs>
  <g
     inkscape:label="Layer 1"
     inkscape:groupmode="layer"
     id="layer1"
     transform="translate(0,-8)">
    <path
       d="M 24,8.9492188 C 15.268587,8.9487518 8.1902649,15.808268 8.1894531,24.271484 c 0.015493,1.90977 0.3988111,3.799142 1.1308594,5.572266 0.063721,0.156169 0.1302362,0.312744 0.1992188,0.466797 l 1.4472657,2.582031 5.662109,10.119141 6.466797,11.55664 c 0.400902,0.719429 1.407692,0.719429 1.808594,0 l 6.466797,-11.55664 5.662109,-10.119141 1.447266,-2.582031 c 0.06898,-0.154053 0.135498,-0.310628 0.199218,-0.466797 0.732049,-1.773124 1.115368,-3.662496 1.13086,-5.572266 C 39.809735,15.808268 32.731413,8.9487518 24,8.9492188 Z m 0,5.2949222 A 10.345697,10.027916 0 0 1 34.345703,24.271484 10.345697,10.027916 0 0 1 24,34.300781 10.345697,10.027916 0 0 1 13.654297,24.271484 10.345697,10.027916 0 0 1 24,14.244141 Z"
       style="stroke:#052557;stroke-width:1.5;stroke-linecap:square;stroke-linejoin:miter;stroke-opacity:1;paint-order:stroke markers fill;stroke-dasharray:none;fill:#f9d8d2;fill-opacity:1"
       id="path7" />
  </g>
</svg>
